# xmcd
#
# Track frame offsets:
#	150
#	12206
#	33379
#	52562
#	71851
#	87815
#	112264
#	134535
#
# Disc length: 2008 seconds
#
# Revision: 0
# Processed by: cddbd v1.5.1PL0 Copyright (c) Steve Scherf et al.
# Submitted via: dBpowerAMP V4.0
#
DISCID=6607d608
DTITLE=Various Artist - Liberation blue acoustic series
DYEAR=1900
DGENRE=Acoustic
TTITLE0=Everybody's talking
TTITLE1=Hold on to me
TTITLE2=How come
TTITLE3=Father's day
TTITLE4=She won't need words
TTITLE5=The chosen ones
TTITLE6=When love comes back to haunt you
TTITLE7=I'll remember
EXTD=Liberation Blue Acoustic series
EXTT0=
EXTT1=
EXTT2=
EXTT3=
EXTT4=
EXTT5=
EXTT6=
EXTT7=
PLAYORDER=
